<?xml version="1.0" encoding="UTF-8" standalone="no"?>
<svg
   xmlns:dc="http://purl.org/dc/elements/1.1/"
   xmlns:cc="http://creativecommons.org/ns#"
   xmlns:rdf="http://www.w3.org/1999/02/22-rdf-syntax-ns#"
   xmlns:svg="http://www.w3.org/2000/svg"
   xmlns="http://www.w3.org/2000/svg"
   style="clip-rule:evenodd;fill-rule:evenodd;image-rendering:optimizeQuality;shape-rendering:geometricPrecision;text-rendering:geometricPrecision"
   id="svg853"
   viewBox="0 0 16.086957 21.660024"
   version="1.0"
   height="53.555004"
   width="40"
   xml:space="preserve"><metadata
   id="metadata859"><rdf:RDF><cc:Work
       rdf:about=""><dc:format>image/svg+xml</dc:format><dc:type
         rdf:resource="http://purl.org/dc/dcmitype/StillImage" /><dc:title></dc:title></cc:Work></rdf:RDF></metadata><defs
   id="defs857" />
 <path
   id="rect875"
   d="M 11.056755,16.273487 A 8.088889,8.088889 0 0 1 7.83542,16.952827 8.088889,8.088889 0 0 1 4.6204021,16.282966 L 7.83542,21.660023 Z"
   style="opacity:1;fill:#679509;fill-opacity:1;fill-rule:evenodd;stroke:#fd0e7e;stroke-width:0;stroke-linecap:round;stroke-linejoin:round;stroke-miterlimit:4;stroke-dasharray:none;stroke-opacity:1" /><path
   id="circle839"
   d="M 15.924669,8.088889 A 8.0888889,8.088889 0 0 1 7.835779,16.177778 8.0888889,8.088889 0 0 1 -0.25310902,8.088889 8.0888889,8.088889 0 0 1 7.835779,0 a 8.0888889,8.088889 0 0 1 8.08889,8.088889 z"
   style="fill:#679509;stroke-width:0.17975309" /><path
   id="circle839-3"
   d="m 4.627317,2.325577 c -0.753657,0 -1.431969,0.14814 -2.034895,0.444578 C 1.989496,3.061569 1.474474,3.476116 1.047403,4.013725 0.62535398,4.551334 0.29877698,5.199488 0.06765498,5.95817 c -0.139414,0.464714 -0.235363,0.963037 -0.288813,1.494612 a 8.0888893,8.0888893 0 0 0 -0.03195,0.636126 8.0888893,8.0888893 0 0 0 1.37122102,4.49463 c 0.251463,0.236604 0.533963,0.430465 0.848831,0.579613 0.482341,0.226097 1.027519,0.339078 1.635469,0.339078 0.542634,0 1.042506,-0.09547 1.499724,-0.286398 0.457219,-0.195951 0.851615,-0.462217 1.183223,-0.79885 0.33161,-0.341658 0.590371,-0.743557 0.776274,-1.2058 0.185901,-0.462244 0.278873,-0.959757 0.278873,-1.492341 0,-0.502438 -0.07032,-0.959648 -0.211001,-1.371647 C 6.988823,7.935194 6.790375,7.583461 6.534131,7.292047 6.277888,6.995608 5.968818,6.767004 5.607062,6.606223 5.245307,6.445443 4.840907,6.36512 4.393737,6.36512 c -0.999851,0 -1.755985,0.354234 -2.268472,1.062672 H 2.079975 C 2.090025,6.930378 2.160345,6.480672 2.290976,6.078721 2.426634,5.671746 2.610075,5.325016 2.841196,5.038627 3.077342,4.752237 3.358757,4.531278 3.685342,4.375522 4.011926,4.219766 4.376165,4.141802 4.778116,4.141802 c 0.648145,0 1.245991,0.155786 1.793648,0.467298 V 2.619501 C 6.109521,2.42355 5.461367,2.325577 4.62732,2.325577 Z m -1.039953,5.80309 c 0.949608,0 1.424326,0.580337 1.424326,1.740969 0,0.266293 -0.03266,0.512406 -0.09797,0.738503 -0.06532,0.221073 -0.160788,0.412017 -0.286399,0.572797 -0.120584,0.155756 -0.268725,0.278884 -0.444578,0.369323 -0.170829,0.08541 -0.364274,0.128077 -0.580323,0.128077 -0.216048,0 -0.411995,-0.05017 -0.587849,-0.150654 C 2.838718,11.427194 2.685433,11.29156 2.5548,11.120732 2.429189,10.944878 2.331216,10.741286 2.260875,10.510164 c -0.07034,-0.231122 -0.1055,-0.479736 -0.1055,-0.746028 0,-0.241171 0.03266,-0.459771 0.09797,-0.655722 C 2.323685,8.907439 2.42166,8.734145 2.547269,8.588438 2.672879,8.442731 2.823521,8.329608 2.999373,8.249218 3.175227,8.168828 3.371315,8.128667 3.587364,8.128667 Z"
   style="clip-rule:evenodd;fill:#ffffff;fill-rule:evenodd;stroke-width:0.17975309;image-rendering:optimizeQuality;shape-rendering:geometricPrecision;text-rendering:geometricPrecision" />
<path
   id="circle839-2"
   d="M 12.432695,2.50637 C 12.181477,3.049003 11.875051,3.619336 11.513295,4.217237 11.156564,4.810114 10.769672,5.400456 10.352648,5.988309 9.935625,6.576162 9.503569,7.148995 9.056399,7.706702 8.60923,8.259384 8.177031,8.769261 7.760008,9.236529 v 1.861663 h 4.710458 v 2.21565 h 1.539198 A 8.0888893,8.0888893 0 0 0 14.640962,12.4457 v -1.347508 h 0.696617 a 8.0888893,8.0888893 0 0 0 0.482773,-1.77874 h -1.17939 V 3.716572 A 8.0888893,8.0888893 0 0 0 13.685069,2.50637 Z m 0.03777,3.037361 V 9.319452 H 9.892876 c 0.216047,-0.266292 0.43965,-0.550065 0.670772,-0.851529 0.231122,-0.306487 0.459727,-0.620559 0.685823,-0.942119 0.226098,-0.326585 0.442195,-0.655665 0.648196,-0.987274 0.206,-0.336634 0.396944,-0.668214 0.572798,-0.994799 z"
   style="clip-rule:evenodd;fill:#ffffff;fill-rule:evenodd;stroke-width:0.17975309;image-rendering:optimizeQuality;shape-rendering:geometricPrecision;text-rendering:geometricPrecision" /></svg>