<?xml version="1.0" encoding="UTF-8" standalone="no"?>
<svg
   xmlns:dc="http://purl.org/dc/elements/1.1/"
   xmlns:cc="http://creativecommons.org/ns#"
   xmlns:rdf="http://www.w3.org/1999/02/22-rdf-syntax-ns#"
   xmlns:svg="http://www.w3.org/2000/svg"
   xmlns="http://www.w3.org/2000/svg"
   xmlns:sodipodi="http://sodipodi.sourceforge.net/DTD/sodipodi-0.dtd"
   xmlns:inkscape="http://www.inkscape.org/namespaces/inkscape"
   style="clip-rule:evenodd;fill-rule:evenodd;image-rendering:optimizeQuality;shape-rendering:geometricPrecision;text-rendering:geometricPrecision"
   id="svg853"
   viewBox="0 0 89.665342 89.999997"
   version="1.0"
   height="222.52747"
   width="222.95166"
   xml:space="preserve"
   sodipodi:docname="logo404.svg"
   inkscape:version="0.92.3 (2405546, 2018-03-11)"><sodipodi:namedview
   pagecolor="#ffffff"
   bordercolor="#666666"
   borderopacity="1"
   objecttolerance="10"
   gridtolerance="10"
   guidetolerance="10"
   inkscape:pageopacity="0"
   inkscape:pageshadow="2"
   inkscape:window-width="1920"
   inkscape:window-height="996"
   id="namedview830"
   showgrid="false"
   fit-margin-top="0"
   fit-margin-left="0"
   fit-margin-right="0"
   fit-margin-bottom="0"
   inkscape:zoom="1.5255671"
   inkscape:cx="-177.61439"
   inkscape:cy="111.26374"
   inkscape:window-x="-8"
   inkscape:window-y="-8"
   inkscape:window-maximized="1"
   inkscape:current-layer="svg853" /><metadata
   id="metadata859"><rdf:RDF><cc:Work
       rdf:about=""><dc:format>image/svg+xml</dc:format><dc:type
         rdf:resource="http://purl.org/dc/dcmitype/StillImage" /><dc:title></dc:title></cc:Work></rdf:RDF></metadata><defs
   id="defs857" />
 <path
   id="circle839"
   d="m -0.864268,45 a 45,45 0 0 1 45,-45 45,45 0 0 1 45,45 45,45 0 0 1 -45,45 45,45 0 0 1 -45,-45 z"
   style="fill:#679509"
   inkscape:connector-curvature="0" />
<g
   transform="rotate(180,166.06786,45)"
   id="text863-9"
   style="font-style:normal;font-weight:normal;font-size:85.86723328px;line-height:1.25;font-family:sans-serif;letter-spacing:0px;word-spacing:0px;fill:#ffffff;fill-opacity:1;stroke:none;stroke-width:2.14668036"
   aria-label="6"><path
     id="path913"
     style="font-style:normal;font-variant:normal;font-weight:bold;font-stretch:normal;font-family:'Segoe UI Light';-inkscape-font-specification:'Segoe UI Light, Bold';fill:#ffffff;fill-opacity:1;stroke-width:2.14668036"
     d="m 285.24472,54.067887 q 0,4.4443 -1.55131,8.301617 -1.55131,3.857318 -4.31852,6.708378 -2.7672,2.809133 -6.58259,4.4443 -3.81539,1.59324 -8.34355,1.59324 -5.07321,0 -9.09824,-1.886731 -3.98309,-1.886732 -6.7503,-5.450557 -2.76721,-3.605753 -4.23466,-8.804746 -1.46746,-5.198992 -1.46746,-11.781588 0,-7.756562 1.88673,-14.045666 1.92866,-6.331031 5.45056,-10.817258 3.56382,-4.486228 8.59511,-6.918015 5.03128,-2.473714 11.32038,-2.473714 6.95994,0 10.81726,1.635167 v 11.068823 q -4.57008,-2.599496 -9.97871,-2.599496 -3.35419,0 -6.07947,1.299748 -2.72528,1.299748 -4.69586,3.689608 -1.92866,2.389859 -3.0607,5.785975 -1.09011,3.354189 -1.17396,7.504998 h 0.25156 q 4.27659,-5.911758 12.62013,-5.911758 3.73154,0 6.75031,1.341675 3.01877,1.341676 5.15706,3.81539 2.1383,2.431787 3.31227,5.869831 1.17396,3.438043 1.17396,7.630779 z m -12.95555,0.838547 q 0,-9.68522 -7.92427,-9.68522 -1.80288,0 -3.27034,0.670838 -1.46745,0.670838 -2.51564,1.886731 -1.04818,1.215894 -1.63517,2.892988 -0.54505,1.635167 -0.54505,3.64768 0,2.22215 0.58698,4.150809 0.58698,1.928658 1.63517,3.396116 1.09011,1.42553 2.55757,2.264078 1.46746,0.838547 3.27033,0.838547 1.80288,0 3.22841,-0.712765 1.46746,-0.754693 2.47371,-2.054441 1.04819,-1.341676 1.59324,-3.186479 0.54506,-1.886732 0.54506,-4.108882 z"
     inkscape:connector-curvature="0" /></g><g
   transform="rotate(180,166.06786,45)"
   id="text863-9-3"
   style="font-style:normal;font-weight:normal;font-size:85.86723328px;line-height:1.25;font-family:sans-serif;letter-spacing:0px;word-spacing:0px;fill:#ffffff;fill-opacity:1;stroke:none;stroke-width:2.14668036"
   aria-label="4"><path
     id="path910"
     style="font-style:normal;font-variant:normal;font-weight:bold;font-stretch:normal;font-family:'Segoe UI Light';-inkscape-font-specification:'Segoe UI Light, Bold';fill:#ffffff;fill-opacity:1;stroke-width:2.14668036"
     d="m 325.85815,13.943404 v 37.902333 h 7.2115 v 9.894857 h -7.2115 V 74.067238 H 313.78307 V 61.740594 h -26.2046 V 51.384536 q 3.47997,-3.899244 7.2115,-8.511254 3.73154,-4.653937 7.21151,-9.559438 3.47997,-4.905501 6.45681,-9.85293 3.01877,-4.989356 5.11514,-9.51751 z m -26.41424,37.902333 h 14.33916 V 30.84013 q -1.46746,2.725278 -3.18648,5.534411 -1.71903,2.767206 -3.60576,5.492484 -1.88673,2.683351 -3.81539,5.24092 -1.92866,2.515642 -3.73153,4.737792 z"
     inkscape:connector-curvature="0" /></g></svg>