<?xml version="1.0" encoding="UTF-8" standalone="no"?>
<svg
   xmlns:dc="http://purl.org/dc/elements/1.1/"
   xmlns:cc="http://creativecommons.org/ns#"
   xmlns:rdf="http://www.w3.org/1999/02/22-rdf-syntax-ns#"
   xmlns:svg="http://www.w3.org/2000/svg"
   xmlns="http://www.w3.org/2000/svg"
   style="clip-rule:evenodd;fill-rule:evenodd;image-rendering:optimizeQuality;shape-rendering:geometricPrecision;text-rendering:geometricPrecision"
   id="svg853"
   viewBox="0 0 330.84632 89.999997"
   version="1.0"
   height="222.52747"
   width="822.6449"
   xml:space="preserve"><metadata
   id="metadata859"><rdf:RDF><cc:Work
       rdf:about=""><dc:format>image/svg+xml</dc:format><dc:type
         rdf:resource="http://purl.org/dc/dcmitype/StillImage" /><dc:title></dc:title></cc:Work></rdf:RDF></metadata><defs
   id="defs857" />
 <g
   transform="translate(-1.2954863)"
   id="text863"
   style="font-style:normal;font-weight:normal;font-size:79.03436279px;line-height:1.25;font-family:sans-serif;letter-spacing:0px;word-spacing:0px;fill:#679509;fill-opacity:1;stroke:none;stroke-width:1.97585881"
   aria-label="madein"><path
     id="path917"
     style="font-style:normal;font-variant:normal;font-weight:normal;font-stretch:normal;font-family:'Segoe UI Light';-inkscape-font-specification:'Segoe UI Light, ';fill:#679509;fill-opacity:1;stroke-width:1.97585881"
     d="M 49.906327,67.15934 V 43.387285 q 0,-7.448062 -2.354051,-10.45816 -2.31546,-3.010098 -7.37088,-3.010098 -4.669511,0 -8.065519,4.013464 -3.396008,4.013464 -3.396008,10.07225 V 67.15934 H 25.169498 V 43.117148 q 0,-13.198121 -10.03366,-13.198121 -4.823874,0 -8.0269272,4.052055 Q 3.905858,37.984546 3.905858,44.390651 V 67.15934 H 0.35548627 V 27.642159 H 3.905858 v 6.560469 h 0.154364 q 4.1292368,-7.525244 12.078982,-7.525244 4.322192,0 7.370881,2.508414 3.08728,2.469824 4.167827,6.521879 1.852368,-4.283601 5.286967,-6.637652 3.47319,-2.392641 7.525245,-2.392641 12.966575,0 12.966575,16.053855 V 67.15934 Z" /><path
     id="path919"
     style="font-style:normal;font-variant:normal;font-weight:normal;font-stretch:normal;font-family:'Segoe UI Light';-inkscape-font-specification:'Segoe UI Light, ';fill:#679509;fill-opacity:1;stroke-width:1.97585881"
     d="m 88.960413,67.15934 v -7.911155 h -0.154364 q -1.890959,4.052055 -5.518513,6.483288 -3.588963,2.392642 -7.988336,2.392642 -5.634286,0 -8.914521,-3.164462 -3.280235,-3.164462 -3.280235,-7.988336 0,-10.342388 13.699805,-12.503484 l 12.156164,-1.813776 q 0,-12.73503 -9.570568,-12.73503 -6.521878,0 -12.696438,5.248376 v -4.283601 q 2.199687,-1.736595 5.943014,-2.971507 3.781918,-1.234911 7.100743,-1.234911 6.097378,0 9.416204,3.781917 3.357417,3.781918 3.357417,10.998435 V 67.15934 Z M 78.077751,47.477931 q -6.21315,0.887593 -8.721565,2.894325 -2.508415,1.968141 -2.508415,6.444697 0,3.51178 2.31546,5.788649 2.354051,2.276869 6.521879,2.276869 5.711467,0 9.493385,-4.206419 3.781918,-4.245009 3.781918,-10.921252 v -3.8591 z" /><path
     id="path921"
     style="font-style:normal;font-variant:normal;font-weight:normal;font-stretch:normal;font-family:'Segoe UI Light';-inkscape-font-specification:'Segoe UI Light, ';fill:#679509;fill-opacity:1;stroke-width:1.97585881"
     d="m 132.45246,67.15934 v -7.177926 h -0.15436 q -1.92955,3.743327 -5.71147,5.943014 -3.78192,2.199687 -8.52861,2.199687 -7.2937,0 -11.92462,-5.325558 -4.59233,-5.325557 -4.59233,-14.70317 0,-9.570567 5.01683,-15.47499 5.05542,-5.943013 13.08235,-5.943013 8.87593,0 12.65785,7.293698 h 0.15436 V 8.6553878 h 3.55037 V 67.15934 Z m 0,-24.042192 q 0,-5.518512 -3.51178,-9.339021 -3.47319,-3.8591 -9.37761,-3.8591 -6.21315,0 -10.26521,4.785284 -4.05205,4.746693 -4.05205,13.082348 0,8.181292 3.62755,12.657847 3.66615,4.437965 9.41621,4.437965 6.75342,0 10.45816,-4.167828 3.70473,-4.206418 3.70473,-10.226614 z" /><path
     id="path923"
     style="font-style:normal;font-variant:normal;font-weight:normal;font-stretch:normal;font-family:'Segoe UI Light';-inkscape-font-specification:'Segoe UI Light, ';fill:#679509;fill-opacity:1;stroke-width:1.97585881"
     d="m 149.54827,47.555113 q 0,8.142701 3.74333,12.735029 3.78191,4.592329 10.34238,4.592329 6.63765,0 12.96658,-4.901057 v 3.781918 q -6.13597,4.360783 -13.69981,4.360783 -7.64101,0 -12.34912,-5.479922 -4.7081,-5.479921 -4.7081,-15.47499 0,-8.644383 4.90106,-14.548806 4.93965,-5.943013 12.81221,-5.943013 7.37088,0 11.30716,5.171193 3.93628,5.171194 3.93628,14.124305 v 1.582231 z m 25.54724,-3.241644 q -0.23155,-6.830606 -3.28024,-10.612524 -3.04868,-3.781918 -8.41283,-3.781918 -5.55711,0 -9.22325,3.743327 -3.62756,3.704736 -4.47656,10.651115 z" /><path
     id="path925"
     style="font-style:normal;font-variant:normal;font-weight:normal;font-stretch:normal;font-family:'Segoe UI Light';-inkscape-font-specification:'Segoe UI Light, ';fill:#679509;fill-opacity:1;stroke-width:1.97585881"
     d="m 190.41615,17.685681 q -1.15773,0 -2.04533,-0.849002 -0.88759,-0.849002 -0.88759,-2.161096 0,-1.273503 0.88759,-2.045323 0.92619,-0.81041 2.04533,-0.81041 1.19632,0 2.08391,0.771819 0.92619,0.77182 0.92619,2.083914 0,1.234912 -0.8876,2.122505 -0.88759,0.887593 -2.1225,0.887593 z m -1.7366,49.473659 V 27.642159 h 3.55037 V 67.15934 Z" /><path
     id="path927"
     style="font-style:normal;font-variant:normal;font-weight:normal;font-stretch:normal;font-family:'Segoe UI Light';-inkscape-font-specification:'Segoe UI Light, ';fill:#679509;fill-opacity:1;stroke-width:1.97585881"
     d="M 231.74711,67.15934 V 44.159105 q 0,-14.240078 -10.26521,-14.240078 -5.71146,0 -9.37761,4.206419 -3.66614,4.167828 -3.66614,10.342387 V 67.15934 h -3.55038 V 27.642159 h 3.55038 v 7.177925 h 0.15436 q 4.32219,-8.1427 13.50685,-8.1427 6.4061,0 9.80211,4.2836 3.39601,4.24501 3.39601,12.156164 V 67.15934 Z" /></g><path
   id="circle839"
   d="m 331.70451,45 a 45,45 0 0 1 -45,45 45,45 0 0 1 -45,-45 45,45 0 0 1 45,-45 45,45 0 0 1 45,45 z"
   style="fill:#679509" />
<g
   transform="translate(-1.2954863)"
   id="text863-9"
   style="font-style:normal;font-weight:normal;font-size:85.86723328px;line-height:1.25;font-family:sans-serif;letter-spacing:0px;word-spacing:0px;fill:#ffffff;fill-opacity:1;stroke:none;stroke-width:2.14668036"
   aria-label="6"><path
     id="path913"
     style="font-style:normal;font-variant:normal;font-weight:bold;font-stretch:normal;font-family:'Segoe UI Light';-inkscape-font-specification:'Segoe UI Light, Bold';fill:#ffffff;fill-opacity:1;stroke-width:2.14668036"
     d="m 285.24472,54.067887 q 0,4.4443 -1.55131,8.301617 -1.55131,3.857318 -4.31852,6.708378 -2.7672,2.809133 -6.58259,4.4443 -3.81539,1.59324 -8.34355,1.59324 -5.07321,0 -9.09824,-1.886731 -3.98309,-1.886732 -6.7503,-5.450557 -2.76721,-3.605753 -4.23466,-8.804746 -1.46746,-5.198992 -1.46746,-11.781588 0,-7.756562 1.88673,-14.045666 1.92866,-6.331031 5.45056,-10.817258 3.56382,-4.486228 8.59511,-6.918015 5.03128,-2.473714 11.32038,-2.473714 6.95994,0 10.81726,1.635167 v 11.068823 q -4.57008,-2.599496 -9.97871,-2.599496 -3.35419,0 -6.07947,1.299748 -2.72528,1.299748 -4.69586,3.689608 -1.92866,2.389859 -3.0607,5.785975 -1.09011,3.354189 -1.17396,7.504998 h 0.25156 q 4.27659,-5.911758 12.62013,-5.911758 3.73154,0 6.75031,1.341675 3.01877,1.341676 5.15706,3.81539 2.1383,2.431787 3.31227,5.869831 1.17396,3.438043 1.17396,7.630779 z m -12.95555,0.838547 q 0,-9.68522 -7.92427,-9.68522 -1.80288,0 -3.27034,0.670838 -1.46745,0.670838 -2.51564,1.886731 -1.04818,1.215894 -1.63517,2.892988 -0.54505,1.635167 -0.54505,3.64768 0,2.22215 0.58698,4.150809 0.58698,1.928658 1.63517,3.396116 1.09011,1.42553 2.55757,2.264078 1.46746,0.838547 3.27033,0.838547 1.80288,0 3.22841,-0.712765 1.46746,-0.754693 2.47371,-2.054441 1.04819,-1.341676 1.59324,-3.186479 0.54506,-1.886732 0.54506,-4.108882 z" /></g><g
   transform="translate(-1.2954863)"
   id="text863-9-3"
   style="font-style:normal;font-weight:normal;font-size:85.86723328px;line-height:1.25;font-family:sans-serif;letter-spacing:0px;word-spacing:0px;fill:#ffffff;fill-opacity:1;stroke:none;stroke-width:2.14668036"
   aria-label="4"><path
     id="path910"
     style="font-style:normal;font-variant:normal;font-weight:bold;font-stretch:normal;font-family:'Segoe UI Light';-inkscape-font-specification:'Segoe UI Light, Bold';fill:#ffffff;fill-opacity:1;stroke-width:2.14668036"
     d="m 325.85815,13.943404 v 37.902333 h 7.2115 v 9.894857 h -7.2115 V 74.067238 H 313.78307 V 61.740594 h -26.2046 V 51.384536 q 3.47997,-3.899244 7.2115,-8.511254 3.73154,-4.653937 7.21151,-9.559438 3.47997,-4.905501 6.45681,-9.85293 3.01877,-4.989356 5.11514,-9.51751 z m -26.41424,37.902333 h 14.33916 V 30.84013 q -1.46746,2.725278 -3.18648,5.534411 -1.71903,2.767206 -3.60576,5.492484 -1.88673,2.683351 -3.81539,5.24092 -1.92866,2.515642 -3.73153,4.737792 z" /></g></svg>