<?xml version="1.0" encoding="UTF-8" standalone="no"?><svg xmlns="http://www.w3.org/2000/svg" xmlns:xlink="http://www.w3.org/1999/xlink"><symbol viewBox="0 0 16.087 21.66" clip-rule="evenodd" fill-rule="evenodd" image-rendering="optimizeQuality" shape-rendering="geometricPrecision" text-rendering="geometricPrecision" id="geo" xmlns="http://www.w3.org/2000/svg"><path d="M11.057 16.273a8.089 8.089 0 01-3.222.68 8.089 8.089 0 01-3.215-.67l3.215 5.377zM15.925 8.089a8.089 8.089 0 01-8.09 8.089 8.089 8.089 0 01-8.088-8.09A8.089 8.089 0 017.836 0a8.089 8.089 0 018.089 8.089z" fill="#679509"/><path d="M4.627 2.326c-.753 0-1.432.148-2.035.444a4.397 4.397 0 00-1.545 1.244C.625 4.55.3 5.199.067 5.958A7.97 7.97 0 00-.22 7.453a8.089 8.089 0 00-.032.636 8.089 8.089 0 001.371 4.495c.252.236.534.43.849.58.482.225 1.027.338 1.635.338.543 0 1.043-.095 1.5-.286a3.67 3.67 0 001.183-.799c.332-.342.59-.744.777-1.206.186-.462.279-.96.279-1.492 0-.503-.07-.96-.211-1.372a3.087 3.087 0 00-.596-1.055 2.612 2.612 0 00-.927-.686 2.956 2.956 0 00-1.213-.24c-1 0-1.756.353-2.269 1.062H2.08c.01-.498.08-.947.211-1.35a3.3 3.3 0 01.55-1.04c.236-.286.518-.507.844-.662.327-.156.691-.234 1.093-.234.648 0 1.246.156 1.794.467V2.62c-.462-.195-1.11-.293-1.945-.293zm-1.04 5.803c.95 0 1.425.58 1.425 1.74 0 .267-.033.513-.098.74-.066.22-.161.411-.287.572-.12.156-.268.279-.444.37a1.28 1.28 0 01-.58.127c-.217 0-.413-.05-.588-.15-.176-.1-.33-.236-.46-.407a2.087 2.087 0 01-.294-.61 2.55 2.55 0 01-.106-.747c0-.241.033-.46.098-.656.07-.2.169-.374.294-.52.126-.145.277-.258.452-.339.176-.08.372-.12.588-.12zM12.433 2.506a17.646 17.646 0 01-.92 1.711 28.11 28.11 0 01-1.16 1.771A36.586 36.586 0 017.76 9.237v1.861h4.71v2.216h1.54a8.089 8.089 0 00.631-.868v-1.348h.697a8.089 8.089 0 00.482-1.779h-1.179V3.717a8.089 8.089 0 00-.956-1.21zm.037 3.038v3.775H9.893c.216-.266.44-.55.67-.851a23.778 23.778 0 001.334-1.93c.207-.336.398-.668.573-.994z" fill="#fff"/></symbol></svg>