<svg xmlns:svg="http://www.w3.org/2000/svg" xmlns="http://www.w3.org/2000/svg" id="svg853" viewBox="0 0 89.665 90" version="1.0" height="222.527" width="222.952" xml:space="preserve" clip-rule="evenodd" fill-rule="evenodd" image-rendering="optimizeQuality" shape-rendering="geometricPrecision" text-rendering="geometricPrecision"><path id="circle839" d="M-.864 45a45 45 0 0145-45 45 45 0 0145 45 45 45 0 01-45 45 45 45 0 01-45-45z" fill="#679509"/><g transform="rotate(180 166.068 45)" id="text863-9" style="line-height:1.25" aria-label="6" font-style="normal" font-weight="400" font-size="85.867" font-family="sans-serif" letter-spacing="0" word-spacing="0" fill="#fff" fill-opacity="1" stroke="none" stroke-width="2.147"><path id="path913" style="-inkscape-font-specification:'Segoe UI Light, Bold'" d="M285.245 54.068q0 4.444-1.552 8.302-1.55 3.857-4.318 6.708-2.767 2.809-6.583 4.444-3.815 1.593-8.343 1.593-5.073 0-9.098-1.886-3.984-1.887-6.75-5.45-2.768-3.607-4.235-8.806-1.468-5.199-1.468-11.781 0-7.757 1.887-14.046 1.928-6.33 5.45-10.817 3.564-4.486 8.595-6.918 5.032-2.474 11.32-2.474 6.96 0 10.818 1.635v11.07q-4.57-2.6-9.979-2.6-3.354 0-6.079 1.3-2.725 1.3-4.696 3.689-1.929 2.39-3.06 5.786-1.09 3.354-1.175 7.505h.252q4.277-5.912 12.62-5.912 3.732 0 6.75 1.342 3.02 1.342 5.157 3.815 2.139 2.432 3.313 5.87 1.174 3.438 1.174 7.63zm-12.956.838q0-9.685-7.924-9.685-1.803 0-3.27.671-1.468.67-2.516 1.887-1.048 1.216-1.635 2.893-.545 1.635-.545 3.647 0 2.223.587 4.151.587 1.929 1.635 3.396 1.09 1.426 2.557 2.264 1.468.839 3.27.839 1.804 0 3.23-.713 1.467-.754 2.473-2.054 1.048-1.342 1.593-3.187.545-1.886.545-4.109z" font-style="normal" font-variant="normal" font-weight="700" font-stretch="normal" font-family="Segoe UI Light" fill="#fff" fill-opacity="1" stroke-width="2.147"/></g><g transform="rotate(180 166.068 45)" id="text863-9-3" style="line-height:1.25" aria-label="4" font-style="normal" font-weight="400" font-size="85.867" font-family="sans-serif" letter-spacing="0" word-spacing="0" fill="#fff" fill-opacity="1" stroke="none" stroke-width="2.147"><path id="path910" style="-inkscape-font-specification:'Segoe UI Light, Bold'" d="M325.858 13.943v37.903h7.212v9.895h-7.212v12.326h-12.075V61.741h-26.205V51.385q3.48-3.9 7.212-8.512 3.732-4.654 7.211-9.56 3.48-4.905 6.457-9.852 3.02-4.99 5.115-9.518zm-26.414 37.903h14.34V30.84q-1.468 2.725-3.187 5.535-1.72 2.767-3.606 5.492-1.887 2.683-3.816 5.24-1.928 2.517-3.731 4.739z" font-style="normal" font-variant="normal" font-weight="700" font-stretch="normal" font-family="Segoe UI Light" fill="#fff" fill-opacity="1" stroke-width="2.147"/></g></svg>