<svg xmlns:svg="http://www.w3.org/2000/svg" xmlns="http://www.w3.org/2000/svg" id="svg853" viewBox="0 0 330.846 90" version="1.0" height="222.527" width="822.645" xml:space="preserve" clip-rule="evenodd" fill-rule="evenodd" image-rendering="optimizeQuality" shape-rendering="geometricPrecision" text-rendering="geometricPrecision"><g transform="translate(-1.295)" id="text863" style="line-height:1.25" aria-label="madein" font-style="normal" font-weight="400" font-size="79.034" font-family="Segoe UI Light" letter-spacing="0" word-spacing="0" fill="#679509" fill-opacity="1" stroke="none" stroke-width="1.976" font-variant="normal" font-stretch="normal"><path id="path917" style="-inkscape-font-specification:'Segoe UI Light, '" d="M49.906 67.16V43.386q0-7.448-2.354-10.458-2.315-3.01-7.37-3.01-4.67 0-8.066 4.013-3.396 4.014-3.396 10.073v23.154h-3.55V43.117q0-13.198-10.034-13.198-4.824 0-8.027 4.052-3.203 4.014-3.203 10.42v22.768H.356V27.642h3.55v6.56h.154q4.13-7.525 12.08-7.525 4.321 0 7.37 2.509 3.087 2.47 4.168 6.522 1.852-4.284 5.287-6.638 3.473-2.393 7.525-2.393 12.967 0 12.967 16.054V67.16z"/><path id="path919" style="-inkscape-font-specification:'Segoe UI Light, '" d="M88.96 67.16v-7.912h-.154q-1.89 4.052-5.518 6.483-3.59 2.393-7.989 2.393-5.634 0-8.914-3.164-3.28-3.165-3.28-7.989 0-10.342 13.7-12.503l12.155-1.814q0-12.735-9.57-12.735-6.522 0-12.697 5.248v-4.283q2.2-1.737 5.943-2.972 3.782-1.235 7.101-1.235 6.098 0 9.416 3.782 3.358 3.782 3.358 10.999v25.701zM78.078 47.477q-6.213.888-8.722 2.894-2.508 1.968-2.508 6.445 0 3.512 2.315 5.789 2.354 2.276 6.522 2.276 5.712 0 9.493-4.206 3.782-4.245 3.782-10.921v-3.86z"/><path id="path921" style="-inkscape-font-specification:'Segoe UI Light, '" d="M132.452 67.16v-7.18h-.154q-1.93 3.744-5.711 5.943-3.782 2.2-8.529 2.2-7.294 0-11.925-5.325-4.592-5.326-4.592-14.704 0-9.57 5.017-15.475 5.055-5.943 13.082-5.943 8.876 0 12.658 7.294h.154V8.655h3.55V67.16zm0-24.043q0-5.518-3.511-9.339-3.474-3.859-9.378-3.859-6.213 0-10.265 4.785-4.052 4.747-4.052 13.083 0 8.181 3.627 12.658 3.667 4.437 9.417 4.437 6.753 0 10.458-4.167 3.704-4.207 3.704-10.227z"/><path id="path923" style="-inkscape-font-specification:'Segoe UI Light, '" d="M149.548 47.555q0 8.143 3.744 12.735 3.782 4.592 10.342 4.592 6.638 0 12.967-4.9v3.781q-6.136 4.361-13.7 4.361-7.641 0-12.35-5.48-4.707-5.48-4.707-15.475 0-8.644 4.9-14.549 4.94-5.943 12.813-5.943 7.37 0 11.307 5.172 3.936 5.17 3.936 14.124v1.582zm25.548-3.242q-.232-6.83-3.28-10.612-3.05-3.782-8.414-3.782-5.557 0-9.223 3.743-3.627 3.705-4.476 10.651z"/><path id="path925" style="-inkscape-font-specification:'Segoe UI Light, '" d="M190.416 17.686q-1.158 0-2.045-.85-.888-.848-.888-2.16 0-1.274.888-2.046.926-.81 2.045-.81 1.196 0 2.084.772.926.771.926 2.084 0 1.234-.887 2.122-.888.888-2.123.888zm-1.736 49.473V27.642h3.55V67.16z"/><path id="path927" style="-inkscape-font-specification:'Segoe UI Light, '" d="M231.747 67.16v-23q0-14.241-10.265-14.241-5.712 0-9.378 4.206-3.666 4.168-3.666 10.343v22.691h-3.55V27.642h3.55v7.178h.155q4.322-8.143 13.506-8.143 6.406 0 9.802 4.284 3.396 4.245 3.396 12.156V67.16z"/></g><path id="circle839" d="M331.705 45a45 45 0 01-45 45 45 45 0 01-45-45 45 45 0 0145-45 45 45 0 0145 45z" fill="#679509"/><g transform="translate(-1.295)" id="text863-9" style="line-height:1.25" aria-label="6" font-style="normal" font-weight="400" font-size="85.867" font-family="sans-serif" letter-spacing="0" word-spacing="0" fill="#fff" fill-opacity="1" stroke="none" stroke-width="2.147"><path id="path913" style="-inkscape-font-specification:'Segoe UI Light, Bold'" d="M285.245 54.068q0 4.444-1.552 8.302-1.55 3.857-4.318 6.708-2.767 2.809-6.583 4.444-3.815 1.593-8.343 1.593-5.073 0-9.098-1.886-3.984-1.887-6.75-5.45-2.768-3.607-4.235-8.806-1.468-5.199-1.468-11.781 0-7.757 1.887-14.046 1.928-6.33 5.45-10.817 3.564-4.486 8.595-6.918 5.032-2.474 11.32-2.474 6.96 0 10.818 1.635v11.07q-4.57-2.6-9.979-2.6-3.354 0-6.079 1.3-2.725 1.3-4.696 3.689-1.929 2.39-3.06 5.786-1.09 3.354-1.175 7.505h.252q4.277-5.912 12.62-5.912 3.732 0 6.75 1.342 3.02 1.342 5.157 3.815 2.139 2.432 3.313 5.87 1.174 3.438 1.174 7.63zm-12.956.838q0-9.685-7.924-9.685-1.803 0-3.27.671-1.468.67-2.516 1.887-1.048 1.216-1.635 2.893-.545 1.635-.545 3.647 0 2.223.587 4.151.587 1.929 1.635 3.396 1.09 1.426 2.557 2.264 1.468.839 3.27.839 1.804 0 3.23-.713 1.467-.754 2.473-2.054 1.048-1.342 1.593-3.187.545-1.886.545-4.109z" font-style="normal" font-variant="normal" font-weight="700" font-stretch="normal" font-family="Segoe UI Light" fill="#fff" fill-opacity="1" stroke-width="2.147"/></g><g transform="translate(-1.295)" id="text863-9-3" style="line-height:1.25" aria-label="4" font-style="normal" font-weight="400" font-size="85.867" font-family="sans-serif" letter-spacing="0" word-spacing="0" fill="#fff" fill-opacity="1" stroke="none" stroke-width="2.147"><path id="path910" style="-inkscape-font-specification:'Segoe UI Light, Bold'" d="M325.858 13.943v37.903h7.212v9.895h-7.212v12.326h-12.075V61.741h-26.205V51.385q3.48-3.9 7.212-8.512 3.732-4.654 7.211-9.56 3.48-4.905 6.457-9.852 3.02-4.99 5.115-9.518zm-26.414 37.903h14.34V30.84q-1.468 2.725-3.187 5.535-1.72 2.767-3.606 5.492-1.887 2.683-3.816 5.24-1.928 2.517-3.731 4.739z" font-style="normal" font-variant="normal" font-weight="700" font-stretch="normal" font-family="Segoe UI Light" fill="#fff" fill-opacity="1" stroke-width="2.147"/></g></svg>