<?xml version="1.0" standalone="no"?>
<!DOCTYPE svg PUBLIC "-//W3C//DTD SVG 20010904//EN"
 "http://www.w3.org/TR/2001/REC-SVG-20010904/DTD/svg10.dtd">
<svg version="1.0" xmlns="http://www.w3.org/2000/svg"
 width="700.000000pt" height="700.000000pt" viewBox="0 0 700.000000 700.000000"
 preserveAspectRatio="xMidYMid meet">
<metadata>
Created by potrace 1.11, written by Peter Selinger 2001-2013
</metadata>
<g transform="translate(0.000000,700.000000) scale(0.100000,-0.100000)"
fill="#000000" stroke="none">
<path d="M5064 6962 c-74 -65 -168 -148 -178 -157 -6 -6 -45 -38 -86 -70 -41
-33 -77 -62 -80 -65 -3 -3 -22 -16 -42 -30 -21 -14 -38 -28 -38 -32 0 -5 -4
-8 -9 -8 -4 0 -41 -22 -82 -49 -103 -68 -220 -131 -325 -175 -49 -21 -98 -41
-109 -46 -78 -34 -265 -81 -435 -110 -147 -25 -229 -49 -319 -95 -353 -179
-615 -580 -626 -960 -5 -175 36 -325 126 -466 94 -144 208 -214 419 -256 62
-12 390 -10 480 4 346 51 680 192 955 401 95 73 241 228 307 326 132 197 190
363 224 634 8 63 8 300 0 387 -6 65 -31 242 -40 291 -3 12 -7 37 -10 55 -14
81 -22 120 -62 289 -9 36 -18 74 -20 85 -2 11 -6 31 -9 44 -6 33 -7 33 -41 3z"/>
<path d="M1779 4226 c-2 -2 -44 -7 -93 -10 -49 -4 -93 -9 -97 -11 -4 -3 -24
-7 -45 -11 -127 -19 -328 -86 -464 -154 -293 -147 -518 -364 -655 -632 -52
-103 -107 -259 -120 -343 -4 -22 -10 -65 -15 -95 -9 -57 -7 -341 3 -356 3 -5
8 -31 11 -57 18 -136 78 -314 165 -492 374 -764 1298 -1470 2531 -1934 258
-98 306 -110 470 -118 100 -4 129 -2 225 20 139 32 417 135 695 258 74 33 491
240 520 259 8 5 58 34 111 64 119 67 151 87 313 195 167 112 232 158 311 222
222 181 436 386 561 539 292 357 451 692 501 1055 10 67 9 307 0 375 -25 183
-106 391 -213 548 -72 105 -126 165 -258 287 -83 77 -278 194 -421 252 -241
99 -449 138 -725 138 -126 -1 -285 -11 -300 -20 -3 -2 -29 -6 -59 -10 -73 -9
-286 -68 -396 -110 -113 -42 -118 -45 -385 -180 -223 -113 -330 -144 -485
-140 -116 3 -232 41 -410 135 -245 129 -262 137 -380 182 -90 34 -225 76 -269
84 -16 3 -32 7 -36 9 -8 5 -171 33 -235 40 -61 7 -351 16 -356 11z"/>
</g>
</svg>
